<svg width="46" height="17" viewBox="0 0 46 17" fill="none" xmlns="http://www.w3.org/2000/svg">
<path d="M17 8.5C17 13.1944 13.1944 17 8.5 17C3.80558 17 0 13.1944 0 8.5C0 3.80558 3.80558 0 8.5 0C13.1944 0 17 3.80558 17 8.5Z" fill="white"/>
<path d="M43.0861 8.77413C42.9309 7.78783 42.3491 7.29467 41.3406 7.29467C40.9639 7.29467 40.648 7.38333 40.3931 7.56064C40.1382 7.72687 39.9277 7.94852 39.7614 8.22557C39.6063 8.49154 39.4955 8.79076 39.429 9.12322C39.3625 9.4446 39.3292 9.76598 39.3292 10.0874C39.3292 10.3977 39.3625 10.7135 39.429 11.0349C39.4955 11.3563 39.6008 11.6499 39.7448 11.9159C39.9 12.1708 40.105 12.3814 40.3599 12.5476C40.6148 12.7138 40.9251 12.7969 41.2908 12.7969C41.856 12.7969 42.2882 12.6418 42.5874 12.3315C42.8977 12.0101 43.0916 11.5835 43.1692 11.0515H45.4466C45.2914 12.193 44.8481 13.0629 44.1167 13.6613C43.3853 14.2598 42.4489 14.559 41.3074 14.559C40.6646 14.559 40.0717 14.4537 39.5287 14.2432C38.9968 14.0215 38.5424 13.7168 38.1656 13.3289C37.7888 12.941 37.4952 12.4811 37.2846 11.9492C37.074 11.4061 36.9688 10.8132 36.9688 10.1705C36.9688 9.50555 37.0629 8.8905 37.2513 8.32531C37.4508 7.74904 37.739 7.25588 38.1157 6.84585C38.4925 6.42472 38.9524 6.0978 39.4955 5.86508C40.0385 5.63235 40.6591 5.51599 41.3573 5.51599C41.867 5.51599 42.3547 5.58248 42.8201 5.71547C43.2966 5.84845 43.7178 6.05347 44.0835 6.33053C44.4603 6.5965 44.765 6.9345 44.9977 7.34454C45.2305 7.7435 45.3635 8.22003 45.3967 8.77413H43.0861Z" fill="white"/>
<path d="M31.0625 5.74872H33.3066V7.34454H33.3399C33.4507 7.07857 33.6003 6.83476 33.7887 6.61312C33.9771 6.3804 34.1932 6.18646 34.437 6.03131C34.6808 5.86508 34.9412 5.73763 35.2183 5.64898C35.4953 5.56032 35.7835 5.51599 36.0827 5.51599C36.2378 5.51599 36.4096 5.5437 36.598 5.59911V7.79337C36.4872 7.7712 36.3542 7.75458 36.1991 7.7435C36.0439 7.72133 35.8943 7.71025 35.7502 7.71025C35.318 7.71025 34.9523 7.78228 34.6531 7.92635C34.3539 8.07042 34.1101 8.2699 33.9217 8.52479C33.7444 8.76859 33.6169 9.05673 33.5394 9.38919C33.4618 9.72165 33.423 10.0818 33.423 10.4697V14.3429H31.0625V5.74872Z" fill="white"/>
<path d="M21.2119 2.47388H23.5724V6.94551H23.6223C23.9215 6.44682 24.3038 6.08665 24.7693 5.865C25.2347 5.63228 25.6891 5.51592 26.1324 5.51592C26.7641 5.51592 27.2794 5.60457 27.6783 5.78189C28.0884 5.94812 28.4097 6.18639 28.6425 6.49668C28.8752 6.7959 29.0359 7.16715 29.1245 7.61044C29.2243 8.04264 29.2742 8.52471 29.2742 9.05665V14.3428H26.9137V9.48886C26.9137 8.7796 26.8028 8.2532 26.5812 7.90965C26.3596 7.55503 25.9661 7.37771 25.401 7.37771C24.7582 7.37771 24.2927 7.57165 24.0046 7.95952C23.7165 8.33632 23.5724 8.96245 23.5724 9.83794V14.3428H21.2119V2.47388Z" fill="white"/>
</svg>
