<svg width="268" height="204" viewBox="0 0 268 204" fill="none" xmlns="http://www.w3.org/2000/svg">
<path d="M268 204H134C173.132 204 229.283 201.862 252.348 200.91C258.365 200.662 263.226 195.995 263.69 189.99C265.152 171.097 268 130.617 268 102C268 73.3835 265.152 32.9028 263.69 14.0098C263.226 8.00513 258.365 3.33819 252.348 3.08984C229.283 2.13793 173.132 0 134 0C94.8684 1.04175e-07 38.7172 2.13793 15.6523 3.08984C9.63488 3.33819 4.77416 8.00513 4.30957 14.0098C2.84779 32.9028 1.97729e-08 73.3835 0 102C0 130.617 2.84779 171.097 4.30957 189.99C4.77416 195.995 9.63488 200.662 15.6523 200.91C38.7172 201.862 94.8684 204 134 204H0V0H268V204Z" fill="black"/>
</svg>
